<?xml version="1.0" encoding="UTF-8"?>
<svg id="uuid-57deaebf-3e22-43ba-8413-c0429c7d8be7" data-name="Layer 1" xmlns="http://www.w3.org/2000/svg" viewBox="0 0 552.78 468.59">
  <path d="M269.36,465.48c.07.52.12,1.04.15,1.54.13,2.03-.16,2.09-.89.2-2.56-6.63-5.5-13.02-8.84-19.18-3.82-7.02-8.53-14.01-14.15-20.96-6.76-8.34-14.24-16.45-22.48-24.3-2.2-2.1-4.53-4.08-6.68-6.12-1.52-1.44-3.02-2.76-4.48-3.97-2.03-1.67-3.97-3.51-6-5.19-12.25-10.09-25.3-19.89-38.39-29.14-12.74-8.99-26.43-18.63-41.07-28.92-12.91-9.08-25.55-18.62-37.9-28.61-8.75-7.08-17.36-14.68-25.82-22.8-8.8-8.45-17.05-17.38-24.73-26.79-7.78-9.54-14.59-19.62-20.4-30.27-8.34-15.28-13.79-31.48-16.36-48.6-.2-1.33-.35-2.65-.48-3.98-.16-1.8-.49-3.54-.58-5.37-.3-6.63-.32-13.14-.07-19.54.07-1.82.21-3.66.43-5.54.28-2.54.51-5.02.93-7.55,2.83-16.96,8.42-32.99,16.79-48.08,4.13-7.45,8.74-14.45,13.82-20.98,9.37-12.04,20-22.65,32.4-31.9C84.02,14.9,105.68,5.68,129.54,1.8c8.86-1.44,18.35-2.01,28.46-1.72,1.42.04,2.88.14,4.38.29,2.73.28,5.4.3,8.06.77,1.67.29,3.3.4,4.98.68,18.81,3.21,36.61,10.49,51.75,21.92,2.7,2.04,5.37,4.4,7.89,6.65,3.18,2.83,6.62,6.51,10.34,11.06,11.34,13.88,18.23,29.99,21.28,47.54.49,2.86.68,5.59.95,8.42.51,5.4.39,11.03-.34,16.87-.02.14-.16.21-.28.15-.09-.04-.14-.13-.16-.24-.17-1.34-.48-2.7-.94-4.07-3.18-9.48-8.05-18.03-14.63-25.62-11.46-13.23-25.72-22.66-42.76-28.29-5.64-1.87-11.61-3.25-17.89-4.15-2.94-.42-5.85-.82-8.79-.97-7.15-.36-13.57-.29-19.26.19-4.42.38-9.36,1.21-14.82,2.52-17.26,4.13-33.12,12.62-45.77,25.02-14.19,13.9-23.19,30.76-27,50.57-.25,1.29-.48,2.57-.69,3.85-.46,2.81-.6,5.52-.91,8.33-.42,3.78-.33,7.51-.27,11.22.03,1.95.16,3.85.4,5.71.33,2.57.35,5.03.79,7.7.6,3.57,1.17,7.1,2.03,10.63,3.01,12.42,7.62,24.8,13.83,37.17,9.5,18.92,21.2,36.64,34.4,53.86,16.69,21.77,35.16,43.1,54.07,63.29,5.23,5.58,10.59,11.39,15.9,16.92,6.94,7.21,13.75,14.32,20.44,21.31,4.83,5.05,9.67,10.36,14.3,15.5,3.04,3.38,6.62,7.71,10.74,13.01,10.74,13.82,18.92,28.89,24.54,45.21,1.46,4.24,2.54,8.22,3.22,11.92.58,3.1,1.1,6.58,1.56,10.47h0Z" style="fill: #f6f4f2; stroke-width: 0px;"/>
  <path d="M293.58,427.85c8.15-17.01,19.3-31.92,32.27-46.17,16.92-18.6,34.93-37.16,52.1-55.63,14.61-15.71,28.03-31.04,40.26-45.98,15.81-19.31,30.52-40.28,42.16-62.22,5.33-10.05,10.17-21.38,13.66-32.97,2.52-8.38,4.19-17.17,5.01-26.37.3-3.44.42-6.67.35-9.67-.29-13.03-2.53-25.08-6.7-36.14-1.47-3.92-3.47-8.15-6-12.7-6.42-11.6-15.17-21.46-26.25-29.57-12.13-8.89-25.81-14.75-41.04-17.6-12.07-2.26-24.32-2.53-36.74-.83-5.39.74-10.96,1.99-16.71,3.76-12.43,3.8-23.7,9.77-33.77,17.91-4.52,3.64-8.89,8.06-13.12,13.24-6,7.37-10.4,15.68-13.18,24.96-.25.83-.49,1.68-.74,2.56-.05.18-.3.21-.39.04-.06-.12-.1-.26-.1-.41-.14-4.46-.45-8.77-.29-13.24.11-3.2.32-5.78.61-7.75.5-3.33,1.06-6.39,1.68-9.19,1.57-7.04,3.88-14.01,7-20.61,12.28-26.05,35.19-46.02,62.22-55.7,7.65-2.74,14.82-4.63,21.48-5.66,2.58-.4,5.43-.77,8.54-1.12,5.96-.65,11.67-.74,17.52-.69,4.02.03,8.27.31,12.75.83,13.62,1.6,26.7,4.98,39.21,10.15,16.45,6.79,31.19,16.02,44.23,27.67,24.38,21.8,42.63,50.95,49.84,82.6,1.46,6.4,2.48,13.95,3.06,22.61.23,3.48.33,6.72.28,9.72-.17,12.28-2.02,24.35-5.53,36.23-8.58,29.05-26.12,54.6-47.05,76.82-15.5,16.45-32.35,30.81-50.39,44.54-15.41,11.73-30.83,22.69-47.51,34.05-8.85,6.03-17.37,12.28-26.29,18.67-8.58,6.15-17.46,12.99-26.63,20.49-10.31,8.44-20.09,17.45-29.35,27.01-11.27,11.64-21.63,24.76-28.98,38.61-2.81,5.3-5.36,10.86-7.64,16.69-.98,2.5-1.28,2.43-.92-.24.18-1.28.31-2.59.39-3.94.17-2.88.82-5.73,1.38-8.55.3-1.49.65-2.96,1.05-4.4,2.07-7.32,4.82-14.58,8.28-21.79h0Z" style="fill: #9a7b69; stroke-width: 0px;"/>
  <path d="M190.36,240.88c12.68-26.63,32.31-49.6,54.98-68.35,24.84-20.55,55.08-36.76,86.82-41.77,1.58-.25,1.63-.07.16.55-3.77,1.59-7.47,3.36-11.1,5.31-10.15,5.44-19.02,10.99-26.61,16.63-16.71,12.42-31.71,26.88-45.27,42.47-9.59,11.03-19.32,22.17-28.68,33.59-9.93,12.1-18.93,24.5-26.98,37.19-1.52,2.4-3.16,5.1-4.9,8.09-3.31,5.68-6.05,11.56-8.68,17.23-.65,1.39-1.27,2.94-1.88,4.65-.04.12-.17.18-.29.15-.11-.02-.15-.09-.15-.2.08-3.19.16-6.52.24-9.98.05-2.29.4-4.42.62-6.7.08-.89.2-1.78.36-2.68,2.22-12.84,6.01-24.9,11.37-36.17h0Z" style="fill: #f6f4f2; stroke-width: 0px;"/>
  <path d="M251.12,356.6l-.96-.96v-5.18l.96-.96c11.88-.32,18.93-.68,21.14-1.08,2.21-.4,3.83-1.24,4.88-2.53,1.04-1.28,1.83-4.41,2.35-9.39.52-4.98.78-10.28.78-15.9v-8.91h-26.38c-15.34,0-28.3.24-38.9.72l-2.05-6.5c13.97-26.17,37.29-64.07,69.97-113.69l16.98-6.86,3.01,1.45c-.88,13.65-1.32,30.55-1.32,50.7l-.36,33.96v24.93c11.08-.08,19.63-.32,25.65-.72l1.08,1.2c-.16,3.05-.24,5.26-.24,6.62.08,2.65.2,5.26.36,7.83l-1.2,1.08c-7.79-.48-14.29-.72-19.51-.72h-6.14v8.07c0,8.99.24,15.38.72,19.15.48,3.78,1.24,6.2,2.29,7.29,1.04,1.08,3.15,1.89,6.32,2.41,3.17.52,8.65.82,16.44.9l1.08.96v5.18l-.96.96c-14.13-.64-25.97-.96-35.53-.96-15.58,0-29.07.32-40.47.96ZM228.84,296.39h51.43l1.08-85.63c-7.71,11-17.42,26.09-29.15,45.28-11.72,19.19-19.51,32.64-23.36,40.35Z" style="fill: #9a7b69; stroke-width: 0px;"/>
</svg>