<?xml version="1.0" encoding="UTF-8"?>
<svg id="uuid-24bdfa31-2b3a-4821-831e-d105437c9b57" data-name="Layer 1" xmlns="http://www.w3.org/2000/svg" viewBox="0 0 56.65 47.27">
  <path d="M27.14,46.71c0,.05.01.1.01.15.01.2-.02.21-.09.02-.26-.66-.55-1.3-.88-1.91-.38-.7-.85-1.4-1.41-2.09-.67-.83-1.42-1.64-2.24-2.43-.22-.21-.45-.41-.67-.61-.15-.14-.3-.28-.45-.4-.2-.17-.4-.35-.6-.52-1.22-1.01-2.52-1.99-3.83-2.91-1.27-.9-2.64-1.86-4.1-2.89-1.29-.91-2.55-1.86-3.78-2.86-.87-.71-1.73-1.47-2.58-2.28-.88-.84-1.7-1.73-2.47-2.67-.78-.95-1.46-1.96-2.04-3.02-.83-1.52-1.38-3.14-1.63-4.85-.02-.13-.04-.26-.05-.4-.02-.18-.05-.35-.06-.54-.03-.66-.03-1.31,0-1.95,0-.18.02-.37.04-.55.03-.25.05-.5.09-.75.28-1.69.84-3.29,1.68-4.8.41-.74.87-1.44,1.38-2.09.93-1.2,2-2.26,3.23-3.18,1.94-1.45,4.11-2.37,6.49-2.76.88-.14,1.83-.2,2.84-.17.14,0,.29.01.44.03.27.03.54.03.81.08.17.03.33.04.5.07,1.88.32,3.65,1.05,5.17,2.19.27.2.54.44.79.66.32.28.66.65,1.03,1.1,1.13,1.39,1.82,2.99,2.12,4.75.05.29.07.56.09.84.05.54.07.77,0,1.35,0,.01-.05.35-.06.35,0,0-.01-.01-.02-.02-.02-.13-.05-.27-.09-.41-.32-.95-.8-1.8-1.46-2.56-1.14-1.32-2.57-2.26-4.27-2.82-.56-.19-1.16-.32-1.79-.41-.29-.04-.58-.08-.88-.1-.71-.04-1.35-.03-1.92.02-.44.04-.93.12-1.48.25-1.72.41-3.31,1.26-4.57,2.5-1.42,1.39-2.31,3.07-2.7,5.05-.02.13-.05.26-.07.38-.05.28-.06.55-.09.83-.04.38-.03.75-.03,1.12,0,.19.02.38.04.57.03.26.03.5.08.77.06.36.12.71.2,1.06.3,1.24.76,2.48,1.38,3.71.95,1.89,2.12,3.66,3.43,5.38,1.67,2.17,3.51,4.3,5.4,6.32.52.56,1.06,1.14,1.59,1.69.69.72,1.37,1.43,2.04,2.13.48.5.96,1.03,1.43,1.55.3.34.66.77,1.07,1.3,1.07,1.38,1.89,2.88,2.45,4.51.15.42.25.82.32,1.19.06.31.11.66.16,1.04h0Z" style="fill: none; stroke: #231f20; stroke-miterlimit: 10; stroke-width: .5px;"/>
  <path d="M30.53,42.95c.81-1.7,1.93-3.19,3.22-4.61,1.69-1.86,3.49-3.71,5.2-5.55,1.46-1.57,2.8-3.1,4.02-4.59,1.58-1.93,3.05-4.02,4.21-6.21.53-1,1.02-2.13,1.36-3.29.25-.84.42-1.71.5-2.63.03-.34.04-.67.04-.97-.03-1.3-.25-2.5-.67-3.61-.15-.39-.35-.81-.6-1.27-.64-1.16-1.51-2.14-2.62-2.95-1.21-.89-2.58-1.47-4.1-1.76-1.2-.23-2.43-.25-3.67-.08-.54.07-1.09.2-1.67.37-1.24.38-2.37.98-3.37,1.79-.45.36-.89.8-1.31,1.32-.6.74-1.04,1.57-1.32,2.49-.02.08-.05.17-.07.26,0,.02-.03.02-.04,0,0-.01,0-.03-.01-.04-.01-.45-.04-.87-.03-1.32.01-.32.03-.58.06-.77.05-.33.11-.64.17-.92.16-.7.39-1.4.7-2.06,1.23-2.6,3.51-4.59,6.21-5.56.76-.27,1.48-.46,2.14-.57.26-.04.54-.08.85-.11.59-.07,1.16-.07,1.75-.07.4,0,.82.03,1.27.08,1.36.16,2.66.5,3.91,1.01,1.64.68,3.11,1.6,4.41,2.76,2.43,2.18,4.26,5.09,4.98,8.24.15.64.25,1.39.3,2.26.02.35.03.67.03.97-.02,1.23-.2,2.43-.55,3.62-.86,2.9-2.61,5.45-4.7,7.67-1.55,1.64-3.23,3.07-5.03,4.45-1.54,1.17-3.08,2.26-4.74,3.4-.88.6-1.73,1.23-2.62,1.86-.86.61-1.74,1.3-2.66,2.05-1.03.84-2.01,1.74-2.93,2.7-1.12,1.16-2.16,2.47-2.89,3.85-.28.53-.53,1.08-.76,1.67-.1.25-.13.24-.09-.02.02-.13.03-.26.04-.39.02-.29.08-.57.14-.85.03-.15.06-.3.1-.44.21-.73.48-1.46.83-2.17h0Z" style="fill: none; stroke: #231f20; stroke-miterlimit: 10; stroke-width: .5px;"/>
  <path d="M24.38,34.3l-.11-.11v-.62l.11-.11c1.42-.04,2.26-.08,2.52-.13.26-.05.46-.15.58-.3.12-.15.22-.53.28-1.12.06-.59.09-1.22.09-1.89v-1.06h-3.14c-1.83,0-3.37.03-4.64.09l-.24-.78c1.66-3.12,4.44-7.64,8.34-13.55l2.02-.82.36.17c-.11,1.63-.16,3.64-.16,6.04l-.04,4.05v2.97c1.32,0,2.34-.04,3.06-.09l.13.14c-.02.36-.03.63-.03.79,0,.32.02.63.04.93l-.14.13c-.93-.06-1.7-.09-2.33-.09h-.73v.96c0,1.07.03,1.83.09,2.28.06.45.15.74.27.87.12.13.38.22.75.29.38.06,1.03.1,1.96.11l.13.11v.62l-.11.11c-1.68-.08-3.1-.11-4.23-.11-1.86,0-3.46.04-4.82.11ZM21.72,27.12h6.13l.13-10.21c-.92,1.31-2.08,3.11-3.47,5.4-1.4,2.29-2.33,3.89-2.78,4.81Z" style="fill: none; stroke: #231f20; stroke-miterlimit: 10; stroke-width: .5px;"/>
</svg>