<?xml version="1.0" encoding="UTF-8"?>
<svg id="uuid-945ddf75-f76e-405d-9bcd-dceaa362ecc5" data-name="Layer 1" xmlns="http://www.w3.org/2000/svg" viewBox="0 0 601.43 77.43">
  <path d="M17.03,76.38l-.43-.43v-2.31l.43-.43c5.3-.14,8.44-.3,9.43-.48.98-.18,1.71-.55,2.18-1.13.46-.57.81-1.97,1.05-4.19.23-2.22.35-4.58.35-7.09v-3.97h-11.76c-6.84,0-12.62.11-17.35.32l-.91-2.9C6.23,42.09,16.63,25.19,31.21,3.06l7.57-3.06,1.34.64c-.39,6.09-.59,13.62-.59,22.61l-.16,15.15v11.12c4.94-.04,8.75-.14,11.44-.32l.48.54c-.07,1.36-.11,2.35-.11,2.95.04,1.18.09,2.35.16,3.49l-.54.48c-3.47-.21-6.37-.32-8.7-.32h-2.74v3.6c0,4.01.11,6.86.32,8.54.21,1.68.55,2.77,1.02,3.25.46.48,1.4.84,2.82,1.07,1.41.23,3.86.37,7.33.4l.48.43v2.31l-.43.43c-6.3-.29-11.58-.43-15.84-.43-6.95,0-12.96.14-18.05.43ZM7.09,49.52h22.93l.48-38.19c-3.44,4.91-7.77,11.64-13,20.2-5.23,8.56-8.7,14.56-10.42,17.99Z" style="fill: #f6f4f2; stroke-width: 0px;"/>
  <path d="M57.28,19.65l.32-.28c9.16.16,15.01.24,17.58.24,8.75,0,16.55-.08,23.38-.24l.2.28c-.67,2.56-1.16,6.58-1.48,12.05l-.24.32h-1.96l-.36-.32c.03-.24.04-.45.04-.64,0-2.27-.17-4.43-.52-6.49-1.68-.75-4.01-1.23-6.99-1.46-2.98-.23-5.21-.34-6.71-.34-2.11,0-4.8.15-8.09.44l-.16,6.41-.12,7.33-.12,8.13c2.88.16,5.54.24,7.97.24s4.51-.08,6.17-.24c1.65-.16,2.62-.33,2.9-.5.28-.17.49-.51.64-1,.15-.49.27-1.37.38-2.62l.16-2.48.32-.32h1.84l.32.32c-.05,2.91-.12,5.83-.2,8.77l.2,9.01-.32.32h-1.84l-.32-.32-.28-2.4c-.24-1.87-.41-2.98-.52-3.34-.11-.36-.35-.67-.74-.94-.39-.27-1.38-.48-2.98-.64s-3.8-.24-6.61-.24c-1.55,0-3.91.07-7.09.2-.13,2.24-.2,5.98-.2,11.21,0,5.61.07,9.73.2,12.37h7.37c6.49,0,10.54-.08,12.17-.24,1.63-.16,3.18-.55,4.64-1.16.24-.61.63-2.04,1.18-4.26.55-2.23.86-3.62.94-4.18l.4-.28h1.92l.32.28c-.24,1.15-.47,3.15-.7,6.01-.23,2.86-.34,5.3-.34,7.33l-.28.32c-5.1-.16-11.77-.24-20.02-.24l-10.89-.08c-2.54,0-5.18.11-7.93.32l-.32-.32v-1.32l.32-.4c1.57-.8,2.48-1.3,2.7-1.5.23-.2.41-2.54.56-7.01.15-4.47.22-7.88.22-10.23v-14.69l-.04-9.09c0-1.98-.03-3.58-.08-4.82-.05-1.24-.15-2.13-.28-2.66-.13-.53-.29-.91-.46-1.12-.17-.21-.45-.39-.84-.54-.39-.15-1.05-.27-1.98-.38l-3.04-.24-.32-.28v-2Z" style="fill: #f6f4f2; stroke-width: 0px;"/>
  <path d="M131.99,76.67c-.4-1.17-2.07-5.66-5-13.45l-13.61-33.67c-1.55-3.84-2.52-6.03-2.92-6.55s-2-.87-4.8-1.06l-.36-.36v-1.84l.36-.36c4.08.21,7.55.32,10.41.32,2.67,0,6.21-.11,10.61-.32l.32.32v2.2l-.32.32c-3.23,0-5.16.1-5.79.3-.63.2-.94.58-.94,1.14,0,.32.43,1.74,1.28,4.26.85,2.52,1.61,4.65,2.28,6.39l12.53,31.67,10.45-26.27c.72-1.79,1.77-4.67,3.16-8.65,1.39-3.98,2.08-6.37,2.08-7.17,0-.67-.33-1.09-.98-1.28-.65-.19-2.61-.41-5.87-.68l-.36-.32v-1.92l.36-.32c4.67.21,7.65.32,8.93.32,1.04,0,3.74-.11,8.09-.32l.32.32v1.92l-.32.32c-1.92.08-3.08.23-3.48.44-.4.21-.75.63-1.06,1.24-.31.61-1.26,2.72-2.86,6.33l-12.49,30.75c-2.8,6.86-4.79,12.19-5.97,15.98h-4.04Z" style="fill: #f6f4f2; stroke-width: 0px;"/>
  <path d="M166.58,19.65l.32-.28c9.16.16,15.01.24,17.58.24,8.75,0,16.55-.08,23.38-.24l.2.28c-.67,2.56-1.16,6.58-1.48,12.05l-.24.32h-1.96l-.36-.32c.03-.24.04-.45.04-.64,0-2.27-.17-4.43-.52-6.49-1.68-.75-4.01-1.23-6.99-1.46-2.98-.23-5.21-.34-6.71-.34-2.11,0-4.8.15-8.09.44l-.16,6.41-.12,7.33-.12,8.13c2.88.16,5.54.24,7.97.24s4.51-.08,6.17-.24c1.65-.16,2.62-.33,2.9-.5.28-.17.49-.51.64-1,.15-.49.27-1.37.38-2.62l.16-2.48.32-.32h1.84l.32.32c-.05,2.91-.12,5.83-.2,8.77l.2,9.01-.32.32h-1.84l-.32-.32-.28-2.4c-.24-1.87-.41-2.98-.52-3.34-.11-.36-.35-.67-.74-.94-.39-.27-1.38-.48-2.98-.64s-3.8-.24-6.61-.24c-1.55,0-3.91.07-7.09.2-.13,2.24-.2,5.98-.2,11.21,0,5.61.07,9.73.2,12.37h7.37c6.49,0,10.54-.08,12.17-.24,1.63-.16,3.18-.55,4.64-1.16.24-.61.63-2.04,1.18-4.26.55-2.23.86-3.62.94-4.18l.4-.28h1.92l.32.28c-.24,1.15-.47,3.15-.7,6.01-.23,2.86-.34,5.3-.34,7.33l-.28.32c-5.1-.16-11.77-.24-20.02-.24l-10.89-.08c-2.54,0-5.18.11-7.93.32l-.32-.32v-1.32l.32-.4c1.57-.8,2.48-1.3,2.7-1.5.23-.2.41-2.54.56-7.01.15-4.47.22-7.88.22-10.23v-14.69l-.04-9.09c0-1.98-.03-3.58-.08-4.82-.05-1.24-.15-2.13-.28-2.66-.13-.53-.29-.91-.46-1.12-.17-.21-.45-.39-.84-.54-.39-.15-1.05-.27-1.98-.38l-3.04-.24-.32-.28v-2Z" style="fill: #f6f4f2; stroke-width: 0px;"/>
  <path d="M215.43,19.65l.32-.28c4.88.21,8.69.32,11.41.32,3.02,0,7.09-.09,12.21-.28,1.9-.05,3.27-.08,4.12-.08,6.75,0,11.33,1.23,13.73,3.68,2.4,2.46,3.6,5.37,3.6,8.73,0,2.24-.59,4.44-1.76,6.61-1.17,2.16-2.91,4.01-5.21,5.55-2.3,1.54-5.46,2.69-9.49,3.46.75,1.04,2.1,2.84,4.04,5.41l5.69,7.53c1.84,2.48,3.82,5.1,5.93,7.87,2.11,2.76,3.47,4.32,4.08,4.68.61.36,1.14.58,1.58.66s1.14.12,2.1.12l.32.32v1.88l-.36.36c-1.28-.16-2.8-.24-4.56-.24-1.9,0-3.96.08-6.21.24-1.84-2.24-4.74-6.13-8.69-11.65-4.59-6.41-9.29-12.35-14.09-17.82l.4-1.24c1.39.08,2.47.12,3.24.12,4.62,0,8.23-1.11,10.85-3.32,2.62-2.22,3.92-5.29,3.92-9.21,0-3.52-1.17-6.19-3.52-7.99-2.35-1.8-5.53-2.7-9.53-2.7-2.8,0-5.45.39-7.93,1.16-.4.59-.6,5.59-.6,15.01v18.54l.04,7.81c.03,3.02.11,4.96.24,5.85.13.88.33,1.47.58,1.76.25.29.74.54,1.46.74s2.5.35,5.33.46l.32.24v2l-.32.32c-.13,0-2.48-.08-7.05-.24-1.9-.05-3.38-.08-4.44-.08-.83,0-4.64.11-11.45.32l-.32-.32v-2l.32-.24c2.48-.11,4.14-.24,4.96-.4.83-.16,1.38-.37,1.66-.62.28-.25.51-.79.68-1.62.17-.83.27-2.67.3-5.53l.04-8.45v-18.54l-.08-7.81c-.03-3.04-.1-5-.22-5.89s-.31-1.47-.56-1.76c-.25-.29-.74-.53-1.46-.72-.72-.19-2.5-.33-5.33-.44l-.32-.28v-2Z" style="fill: #f6f4f2; stroke-width: 0px;"/>
  <path d="M302.4.43l.43-.38c8.88.29,14,.43,15.36.43,1.22,0,6.36-.14,15.42-.43l.43.38v2.69l-.43.38c-2.47.07-4.38.18-5.72.32-1.34.14-2.32.41-2.93.81-.61.39-1.01,1.32-1.21,2.77-.2,1.45-.3,3.46-.3,6.04l-.11,12.35v23.74c0,5.94.04,10.1.11,12.46l.27,9.29h10.96c8.74,0,14.19-.11,16.35-.32,2.17-.21,4.25-.73,6.26-1.56.39-.89.96-2.95,1.69-6.18.73-3.22,1.12-5.08,1.15-5.59l.48-.43h2.63l.38.43c-.29,1.43-.58,4.21-.89,8.33-.3,4.12-.46,7.45-.46,9.99l-.43.43c-6.8-.21-15.74-.32-26.8-.32l-15.68-.11c-3.58,0-7.23.14-10.96.43l-.43-.43v-1.77l.43-.54c2.22-1.15,3.44-1.84,3.65-2.09.21-.25.44-2.56.67-6.93.23-4.37.35-9.63.35-15.79v-23.04l-.11-10.47c-.04-4.08-.13-6.71-.3-7.9s-.41-1.97-.75-2.36c-.34-.39-.99-.72-1.96-.97-.97-.25-3.35-.45-7.14-.59l-.43-.38V.43Z" style="fill: #f6f4f2; stroke-width: 0px;"/>
  <path d="M369.52,48.36c0-4,.57-7.74,1.72-11.21,1.15-3.47,3.1-6.68,5.87-9.63,2.76-2.95,6.09-5.23,9.99-6.85,3.9-1.61,8.3-2.42,13.21-2.42,9.1,0,16.35,2.48,21.74,7.43,5.39,4.95,8.09,11.71,8.09,20.28,0,6.03-1.32,11.45-3.96,16.26s-6.43,8.54-11.35,11.21-10.46,4-16.6,4c-4.35,0-8.35-.73-12.01-2.18-3.66-1.45-6.77-3.62-9.35-6.51-2.58-2.88-4.44-6.22-5.61-10.01-1.16-3.79-1.74-7.25-1.74-10.37ZM377.85,45.72c0,3.26.53,6.76,1.58,10.51,1.05,3.75,2.63,6.97,4.72,9.65,2.1,2.68,4.51,4.68,7.25,5.99,2.74,1.31,5.85,1.96,9.35,1.96,4.14,0,7.82-.95,11.05-2.84,3.23-1.9,5.69-4.84,7.37-8.83,1.68-3.99,2.52-8.47,2.52-13.43,0-5.39-.96-10.26-2.88-14.61-1.92-4.35-4.66-7.51-8.21-9.49-3.55-1.98-7.49-2.96-11.81-2.96-6.49,0-11.6,2.03-15.33,6.09-3.74,4.06-5.61,10.05-5.61,17.98Z" style="fill: #f6f4f2; stroke-width: 0px;"/>
  <path d="M459.61,76.67c-.4-1.17-2.07-5.66-5-13.45l-13.61-33.67c-1.55-3.84-2.52-6.03-2.92-6.55s-2-.87-4.8-1.06l-.36-.36v-1.84l.36-.36c4.08.21,7.55.32,10.41.32,2.67,0,6.21-.11,10.61-.32l.32.32v2.2l-.32.32c-3.23,0-5.16.1-5.79.3-.63.2-.94.58-.94,1.14,0,.32.43,1.74,1.28,4.26.85,2.52,1.61,4.65,2.28,6.39l12.53,31.67,10.45-26.27c.72-1.79,1.77-4.67,3.16-8.65,1.39-3.98,2.08-6.37,2.08-7.17,0-.67-.33-1.09-.98-1.28-.65-.19-2.61-.41-5.87-.68l-.36-.32v-1.92l.36-.32c4.67.21,7.65.32,8.93.32,1.04,0,3.74-.11,8.09-.32l.32.32v1.92l-.32.32c-1.92.08-3.08.23-3.48.44-.4.21-.75.63-1.06,1.24-.31.61-1.26,2.72-2.86,6.33l-12.49,30.75c-2.8,6.86-4.79,12.19-5.97,15.98h-4.04Z" style="fill: #f6f4f2; stroke-width: 0px;"/>
  <path d="M494.2,19.65l.32-.28c9.16.16,15.01.24,17.58.24,8.75,0,16.55-.08,23.38-.24l.2.28c-.67,2.56-1.16,6.58-1.48,12.05l-.24.32h-1.96l-.36-.32c.03-.24.04-.45.04-.64,0-2.27-.17-4.43-.52-6.49-1.68-.75-4.01-1.23-6.99-1.46-2.98-.23-5.21-.34-6.71-.34-2.11,0-4.8.15-8.09.44l-.16,6.41-.12,7.33-.12,8.13c2.88.16,5.54.24,7.97.24s4.51-.08,6.17-.24c1.65-.16,2.62-.33,2.9-.5.28-.17.49-.51.64-1,.15-.49.27-1.37.38-2.62l.16-2.48.32-.32h1.84l.32.32c-.05,2.91-.12,5.83-.2,8.77l.2,9.01-.32.32h-1.84l-.32-.32-.28-2.4c-.24-1.87-.41-2.98-.52-3.34-.11-.36-.35-.67-.74-.94-.39-.27-1.38-.48-2.98-.64s-3.8-.24-6.61-.24c-1.55,0-3.91.07-7.09.2-.13,2.24-.2,5.98-.2,11.21,0,5.61.07,9.73.2,12.37h7.37c6.49,0,10.54-.08,12.17-.24,1.63-.16,3.18-.55,4.65-1.16.24-.61.63-2.04,1.18-4.26.54-2.23.86-3.62.94-4.18l.4-.28h1.92l.32.28c-.24,1.15-.47,3.15-.7,6.01-.23,2.86-.34,5.3-.34,7.33l-.28.32c-5.1-.16-11.77-.24-20.02-.24l-10.89-.08c-2.54,0-5.18.11-7.93.32l-.32-.32v-1.32l.32-.4c1.57-.8,2.48-1.3,2.7-1.5.23-.2.41-2.54.56-7.01.15-4.47.22-7.88.22-10.23v-14.69l-.04-9.09c0-1.98-.03-3.58-.08-4.82-.05-1.24-.15-2.13-.28-2.66-.13-.53-.29-.91-.46-1.12-.17-.21-.45-.39-.84-.54-.39-.15-1.05-.27-1.98-.38l-3.04-.24-.32-.28v-2Z" style="fill: #f6f4f2; stroke-width: 0px;"/>
  <path d="M542.57,19.65l.32-.28c4.62.21,7.77.32,9.45.32l18.74-.4c5.34,0,9.72.5,13.13,1.5,3.42,1,6.45,2.74,9.11,5.21,2.66,2.47,4.67,5.34,6.04,8.61,1.38,3.27,2.06,6.76,2.06,10.47s-.63,7.17-1.88,10.69c-1.25,3.52-3.04,6.68-5.34,9.47-2.31,2.79-4.94,5.04-7.89,6.75-2.95,1.71-5.91,2.85-8.87,3.42s-5.99.86-9.09.86c-2.08,0-6.01-.08-11.77-.24-1.9-.05-3.15-.08-3.76-.08-1.84,0-4.07.11-6.69.32l-.32-.32v-1.32l.32-.4c1.57-.8,2.48-1.3,2.7-1.5s.41-2.54.56-7.01c.15-4.47.22-7.88.22-10.23v-14.69l-.04-9.09c0-1.98-.03-3.58-.08-4.82-.05-1.24-.15-2.13-.28-2.66-.13-.53-.29-.91-.46-1.12-.17-.21-.45-.39-.84-.54-.39-.15-1.05-.27-1.98-.38l-3.04-.24-.32-.28v-2ZM557.38,71.9c2.72.53,5.86.8,9.41.8,6.22,0,11.19-1.04,14.92-3.12,3.72-2.08,6.51-5.17,8.35-9.25s2.76-8.69,2.76-13.81c0-7.55-2.02-13.41-6.05-17.58-4.03-4.16-10.38-6.25-19.06-6.25-3.58,0-7.02.27-10.33.8-.21,4.38-.32,9.32-.32,14.81v12.57l.08,11.77c0,2.3.08,5.38.24,9.25Z" style="fill: #f6f4f2; stroke-width: 0px;"/>
</svg>