<?xml version="1.0" encoding="UTF-8"?>
<svg id="uuid-fa521054-e9f7-4a84-9dde-05cf12da9a86" data-name="Layer 1" xmlns="http://www.w3.org/2000/svg" viewBox="0 0 610.07 81.6">
  <path d="M140.63,78.7c-.4-1.17-2.07-5.66-5-13.45l-13.61-33.67c-1.55-3.84-2.52-6.03-2.92-6.55s-2-.87-4.8-1.06l-.36-.36v-1.84l.36-.36c4.08.21,7.55.32,10.41.32,2.67,0,6.21-.11,10.61-.32l.32.32v2.2l-.32.32c-3.23,0-5.16.1-5.79.3-.63.2-.94.58-.94,1.14,0,.32.43,1.74,1.28,4.26.85,2.52,1.61,4.65,2.28,6.39l12.53,31.67,10.45-26.27c.72-1.79,1.77-4.67,3.16-8.65,1.39-3.98,2.08-6.37,2.08-7.17,0-.67-.33-1.09-.98-1.28-.65-.19-2.61-.41-5.87-.68l-.36-.32v-1.92l.36-.32c4.67.21,7.65.32,8.93.32,1.04,0,3.74-.11,8.09-.32l.32.32v1.92l-.32.32c-1.92.08-3.08.23-3.48.44-.4.21-.75.63-1.06,1.24-.31.61-1.26,2.72-2.86,6.33l-12.49,30.75c-2.8,6.86-4.79,12.19-5.97,15.98h-4.04Z" style="fill: #1a1919; stroke-width: 0px;"/>
  <path d="M175.22,21.69l.32-.28c9.16.16,15.01.24,17.58.24,8.75,0,16.55-.08,23.38-.24l.2.28c-.67,2.56-1.16,6.58-1.48,12.05l-.24.32h-1.96l-.36-.32c.03-.24.04-.45.04-.64,0-2.27-.17-4.43-.52-6.49-1.68-.75-4.01-1.23-6.99-1.46-2.98-.23-5.21-.34-6.71-.34-2.11,0-4.8.15-8.09.44l-.16,6.41-.12,7.33-.12,8.13c2.88.16,5.54.24,7.97.24s4.51-.08,6.17-.24c1.65-.16,2.62-.33,2.9-.5.28-.17.49-.51.64-1,.15-.49.27-1.37.38-2.62l.16-2.48.32-.32h1.84l.32.32c-.05,2.91-.12,5.83-.2,8.77l.2,9.01-.32.32h-1.84l-.32-.32-.28-2.4c-.24-1.87-.41-2.98-.52-3.34-.11-.36-.35-.67-.74-.94-.39-.27-1.38-.48-2.98-.64s-3.8-.24-6.61-.24c-1.55,0-3.91.07-7.09.2-.13,2.24-.2,5.98-.2,11.21,0,5.61.07,9.73.2,12.37h7.37c6.49,0,10.54-.08,12.17-.24,1.63-.16,3.18-.55,4.64-1.16.24-.61.63-2.04,1.18-4.26.55-2.23.86-3.62.94-4.18l.4-.28h1.92l.32.28c-.24,1.15-.47,3.15-.7,6.01-.23,2.86-.34,5.3-.34,7.33l-.28.32c-5.1-.16-11.77-.24-20.02-.24l-10.89-.08c-2.54,0-5.18.11-7.93.32l-.32-.32v-1.32l.32-.4c1.57-.8,2.48-1.3,2.7-1.5.23-.2.41-2.54.56-7.01.15-4.47.22-7.88.22-10.23v-14.69l-.04-9.09c0-1.98-.03-3.58-.08-4.82-.05-1.24-.15-2.13-.28-2.66-.13-.53-.29-.91-.46-1.12-.17-.21-.45-.39-.84-.54-.39-.15-1.05-.27-1.98-.38l-3.04-.24-.32-.28v-2Z" style="fill: #1a1919; stroke-width: 0px;"/>
  <path d="M224.07,21.69l.32-.28c4.88.21,8.69.32,11.41.32,3.02,0,7.09-.09,12.21-.28,1.9-.05,3.27-.08,4.12-.08,6.75,0,11.33,1.23,13.73,3.68,2.4,2.46,3.6,5.37,3.6,8.73,0,2.24-.59,4.44-1.76,6.61-1.17,2.16-2.91,4.01-5.21,5.55-2.3,1.54-5.46,2.69-9.49,3.46.75,1.04,2.1,2.84,4.04,5.41l5.69,7.53c1.84,2.48,3.82,5.1,5.93,7.87,2.11,2.76,3.47,4.32,4.08,4.68.61.36,1.14.58,1.58.66s1.14.12,2.1.12l.32.32v1.88l-.36.36c-1.28-.16-2.8-.24-4.56-.24-1.9,0-3.96.08-6.21.24-1.84-2.24-4.74-6.13-8.69-11.65-4.59-6.41-9.29-12.35-14.09-17.82l.4-1.24c1.39.08,2.47.12,3.24.12,4.62,0,8.23-1.11,10.85-3.32,2.62-2.22,3.92-5.29,3.92-9.21,0-3.52-1.17-6.19-3.52-7.99-2.35-1.8-5.53-2.7-9.53-2.7-2.8,0-5.45.39-7.93,1.16-.4.59-.6,5.59-.6,15.01v18.54l.04,7.81c.03,3.02.11,4.96.24,5.85.13.88.33,1.47.58,1.76.25.29.74.54,1.46.74s2.5.35,5.33.46l.32.24v2l-.32.32c-.13,0-2.48-.08-7.05-.24-1.9-.05-3.38-.08-4.44-.08-.83,0-4.64.11-11.45.32l-.32-.32v-2l.32-.24c2.48-.11,4.14-.24,4.96-.4.83-.16,1.38-.37,1.66-.62.28-.25.51-.79.68-1.62.17-.83.27-2.67.3-5.53l.04-8.45v-18.54l-.08-7.81c-.03-3.04-.1-5-.22-5.89s-.31-1.47-.56-1.76c-.25-.29-.74-.53-1.46-.72-.72-.19-2.5-.33-5.33-.44l-.32-.28v-2Z" style="fill: #1a1919; stroke-width: 0px;"/>
  <path d="M311.03,2.46l.43-.38c8.88.29,14,.43,15.36.43,1.22,0,6.36-.14,15.42-.43l.43.38v2.69l-.43.38c-2.47.07-4.38.18-5.72.32-1.34.14-2.32.41-2.93.81-.61.39-1.01,1.32-1.21,2.77-.2,1.45-.3,3.46-.3,6.04l-.11,12.35v23.74c0,5.94.04,10.1.11,12.46l.27,9.29h10.96c8.74,0,14.19-.11,16.35-.32,2.17-.21,4.25-.73,6.26-1.56.39-.89.96-2.95,1.69-6.18.73-3.22,1.12-5.08,1.15-5.59l.48-.43h2.63l.38.43c-.29,1.43-.58,4.21-.89,8.33-.3,4.12-.46,7.45-.46,9.99l-.43.43c-6.8-.21-15.74-.32-26.8-.32l-15.68-.11c-3.58,0-7.23.14-10.96.43l-.43-.43v-1.77l.43-.54c2.22-1.15,3.44-1.84,3.65-2.09.21-.25.44-2.56.67-6.93.23-4.37.35-9.63.35-15.79v-23.04l-.11-10.47c-.04-4.08-.13-6.71-.3-7.9s-.41-1.97-.75-2.36c-.34-.39-.99-.72-1.96-.97-.97-.25-3.35-.45-7.14-.59l-.43-.38v-2.69Z" style="fill: #1a1919; stroke-width: 0px;"/>
  <path d="M378.16,50.39c0-4,.57-7.74,1.72-11.21,1.15-3.47,3.1-6.68,5.87-9.63,2.76-2.95,6.09-5.23,9.99-6.85,3.9-1.61,8.3-2.42,13.21-2.42,9.1,0,16.35,2.48,21.74,7.43,5.39,4.95,8.09,11.71,8.09,20.28,0,6.03-1.32,11.45-3.96,16.26s-6.43,8.54-11.35,11.21-10.46,4-16.6,4c-4.35,0-8.35-.73-12.01-2.18-3.66-1.45-6.77-3.62-9.35-6.51-2.58-2.88-4.44-6.22-5.61-10.01-1.16-3.79-1.74-7.25-1.74-10.37ZM386.49,47.75c0,3.26.53,6.76,1.58,10.51,1.05,3.75,2.63,6.97,4.72,9.65,2.1,2.68,4.51,4.68,7.25,5.99,2.74,1.31,5.85,1.96,9.35,1.96,4.14,0,7.82-.95,11.05-2.84,3.23-1.9,5.69-4.84,7.37-8.83,1.68-3.99,2.52-8.47,2.52-13.43,0-5.39-.96-10.26-2.88-14.61-1.92-4.35-4.66-7.51-8.21-9.49-3.55-1.98-7.49-2.96-11.81-2.96-6.49,0-11.6,2.03-15.33,6.09-3.74,4.06-5.61,10.05-5.61,17.98Z" style="fill: #1a1919; stroke-width: 0px;"/>
  <path d="M468.25,78.7c-.4-1.17-2.07-5.66-5-13.45l-13.61-33.67c-1.55-3.84-2.52-6.03-2.92-6.55s-2-.87-4.8-1.06l-.36-.36v-1.84l.36-.36c4.08.21,7.55.32,10.41.32,2.67,0,6.21-.11,10.61-.32l.32.32v2.2l-.32.32c-3.23,0-5.16.1-5.79.3-.63.2-.94.58-.94,1.14,0,.32.43,1.74,1.28,4.26.85,2.52,1.61,4.65,2.28,6.39l12.53,31.67,10.45-26.27c.72-1.79,1.77-4.67,3.16-8.65,1.39-3.98,2.08-6.37,2.08-7.17,0-.67-.33-1.09-.98-1.28-.65-.19-2.61-.41-5.87-.68l-.36-.32v-1.92l.36-.32c4.67.21,7.65.32,8.93.32,1.04,0,3.74-.11,8.09-.32l.32.32v1.92l-.32.32c-1.92.08-3.08.23-3.48.44-.4.21-.75.63-1.06,1.24-.31.61-1.26,2.72-2.86,6.33l-12.49,30.75c-2.8,6.86-4.79,12.19-5.97,15.98h-4.04Z" style="fill: #1a1919; stroke-width: 0px;"/>
  <path d="M502.84,21.69l.32-.28c9.16.16,15.01.24,17.58.24,8.75,0,16.55-.08,23.38-.24l.2.28c-.67,2.56-1.16,6.58-1.48,12.05l-.24.32h-1.96l-.36-.32c.03-.24.04-.45.04-.64,0-2.27-.17-4.43-.52-6.49-1.68-.75-4.01-1.23-6.99-1.46-2.98-.23-5.21-.34-6.71-.34-2.11,0-4.8.15-8.09.44l-.16,6.41-.12,7.33-.12,8.13c2.88.16,5.54.24,7.97.24s4.51-.08,6.17-.24c1.65-.16,2.62-.33,2.9-.5.28-.17.49-.51.64-1,.15-.49.27-1.37.38-2.62l.16-2.48.32-.32h1.84l.32.32c-.05,2.91-.12,5.83-.2,8.77l.2,9.01-.32.32h-1.84l-.32-.32-.28-2.4c-.24-1.87-.41-2.98-.52-3.34-.11-.36-.35-.67-.74-.94-.39-.27-1.38-.48-2.98-.64s-3.8-.24-6.61-.24c-1.55,0-3.91.07-7.09.2-.13,2.24-.2,5.98-.2,11.21,0,5.61.07,9.73.2,12.37h7.37c6.49,0,10.54-.08,12.17-.24,1.63-.16,3.18-.55,4.65-1.16.24-.61.63-2.04,1.18-4.26.54-2.23.86-3.62.94-4.18l.4-.28h1.92l.32.28c-.24,1.15-.47,3.15-.7,6.01-.23,2.86-.34,5.3-.34,7.33l-.28.32c-5.1-.16-11.77-.24-20.02-.24l-10.89-.08c-2.54,0-5.18.11-7.93.32l-.32-.32v-1.32l.32-.4c1.57-.8,2.48-1.3,2.7-1.5.23-.2.41-2.54.56-7.01.15-4.47.22-7.88.22-10.23v-14.69l-.04-9.09c0-1.98-.03-3.58-.08-4.82-.05-1.24-.15-2.13-.28-2.66-.13-.53-.29-.91-.46-1.12-.17-.21-.45-.39-.84-.54-.39-.15-1.05-.27-1.98-.38l-3.04-.24-.32-.28v-2Z" style="fill: #1a1919; stroke-width: 0px;"/>
  <path d="M551.21,21.69l.32-.28c4.62.21,7.77.32,9.45.32l18.74-.4c5.34,0,9.72.5,13.13,1.5,3.42,1,6.45,2.74,9.11,5.21,2.66,2.47,4.67,5.34,6.04,8.61,1.38,3.27,2.06,6.76,2.06,10.47s-.63,7.17-1.88,10.69c-1.25,3.52-3.04,6.68-5.34,9.47-2.31,2.79-4.94,5.04-7.89,6.75-2.95,1.71-5.91,2.85-8.87,3.42s-5.99.86-9.09.86c-2.08,0-6.01-.08-11.77-.24-1.9-.05-3.15-.08-3.76-.08-1.84,0-4.07.11-6.69.32l-.32-.32v-1.32l.32-.4c1.57-.8,2.48-1.3,2.7-1.5s.41-2.54.56-7.01c.15-4.47.22-7.88.22-10.23v-14.69l-.04-9.09c0-1.98-.03-3.58-.08-4.82-.05-1.24-.15-2.13-.28-2.66-.13-.53-.29-.91-.46-1.12-.17-.21-.45-.39-.84-.54-.39-.15-1.05-.27-1.98-.38l-3.04-.24-.32-.28v-2ZM566.02,73.94c2.72.53,5.86.8,9.41.8,6.22,0,11.19-1.04,14.92-3.12,3.72-2.08,6.51-5.17,8.35-9.25s2.76-8.69,2.76-13.81c0-7.55-2.02-13.41-6.05-17.58-4.03-4.16-10.38-6.25-19.06-6.25-3.58,0-7.02.27-10.33.8-.21,4.38-.32,9.32-.32,14.81v12.57l.08,11.77c0,2.3.08,5.38.24,9.25Z" style="fill: #1a1919; stroke-width: 0px;"/>
  <g>
    <path d="M46.9,81.06c.01.09.02.18.03.27.02.35-.03.36-.15.03-.44-1.15-.96-2.27-1.54-3.34-.66-1.22-1.49-2.44-2.46-3.65-1.18-1.45-2.48-2.86-3.91-4.23-.38-.37-.79-.71-1.16-1.07-.26-.25-.53-.48-.78-.69-.35-.29-.69-.61-1.04-.9-2.13-1.76-4.4-3.46-6.69-5.07-2.22-1.57-4.6-3.24-7.15-5.04-2.25-1.58-4.45-3.24-6.6-4.98-1.52-1.23-3.02-2.56-4.5-3.97-1.53-1.47-2.97-3.03-4.31-4.66-1.36-1.66-2.54-3.42-3.55-5.27-1.45-2.66-2.4-5.48-2.85-8.46-.03-.23-.06-.46-.08-.69-.03-.31-.09-.62-.1-.94-.05-1.15-.06-2.29-.01-3.4.01-.32.04-.64.07-.96.05-.44.09-.87.16-1.31.49-2.95,1.47-5.74,2.92-8.37.72-1.3,1.52-2.52,2.41-3.65,1.63-2.1,3.48-3.94,5.64-5.56C14.63,2.59,18.4.99,22.56.31,24.1.06,25.75-.04,27.51.01c.25,0,.5.02.76.05.47.05.94.05,1.4.13.29.05.57.07.87.12,3.28.56,6.38,1.83,9.01,3.82.47.36.94.77,1.37,1.16.55.49,1.15,1.13,1.8,1.93,1.97,2.42,3.18,5.22,3.71,8.28.09.5.12.97.17,1.47.09.94.07,1.92-.06,2.94,0,.02-.03.04-.05.03-.02,0-.03-.02-.03-.04-.03-.23-.08-.47-.16-.71-.55-1.65-1.4-3.14-2.55-4.46-2-2.3-4.48-3.95-7.45-4.93-.98-.32-2.02-.57-3.11-.72-.51-.07-1.02-.14-1.53-.17-1.25-.06-2.36-.05-3.35.03-.77.07-1.63.21-2.58.44-3.01.72-5.77,2.2-7.97,4.36-2.47,2.42-4.04,5.36-4.7,8.81-.04.22-.08.45-.12.67-.08.49-.1.96-.16,1.45-.07.66-.06,1.31-.05,1.95,0,.34.03.67.07.99.06.45.06.88.14,1.34.1.62.2,1.24.35,1.85.53,2.16,1.33,4.32,2.41,6.47,1.65,3.29,3.69,6.38,5.99,9.38,2.91,3.79,6.12,7.51,9.42,11.02.91.97,1.84,1.98,2.77,2.95,1.21,1.26,2.39,2.49,3.56,3.71.84.88,1.68,1.8,2.49,2.7.53.59,1.15,1.34,1.87,2.27,1.87,2.41,3.29,5.03,4.27,7.87.26.74.44,1.43.56,2.08.1.54.19,1.15.27,1.82h0Z" style="fill: #1a1919; stroke-width: 0px;"/>
    <path d="M51.12,74.5c1.42-2.96,3.36-5.56,5.62-8.04,2.95-3.24,6.08-6.47,9.07-9.69,2.54-2.74,4.88-5.41,7.01-8.01,2.75-3.36,5.31-7.02,7.34-10.84.93-1.75,1.77-3.72,2.38-5.74.44-1.46.73-2.99.87-4.59.05-.6.07-1.16.06-1.68-.05-2.27-.44-4.37-1.17-6.29-.26-.68-.61-1.42-1.04-2.21-1.12-2.02-2.64-3.74-4.57-5.15-2.11-1.55-4.49-2.57-7.15-3.06-2.1-.39-4.23-.44-6.4-.14-.94.13-1.91.35-2.91.65-2.17.66-4.13,1.7-5.88,3.12-.79.63-1.55,1.4-2.29,2.31-1.05,1.28-1.81,2.73-2.3,4.35-.04.14-.09.29-.13.45,0,.03-.05.04-.07,0-.01-.02-.02-.05-.02-.07-.02-.78-.08-1.53-.05-2.3.02-.56.05-1.01.11-1.35.09-.58.18-1.11.29-1.6.27-1.23.68-2.44,1.22-3.59,2.14-4.54,6.13-8.01,10.83-9.7,1.33-.48,2.58-.81,3.74-.99.45-.07.94-.13,1.49-.19,1.04-.11,2.03-.13,3.05-.12.7,0,1.44.05,2.22.15,2.37.28,4.65.87,6.83,1.77,2.86,1.18,5.43,2.79,7.7,4.82,4.25,3.8,7.42,8.87,8.68,14.38.25,1.12.43,2.43.53,3.94.04.61.06,1.17.05,1.69-.03,2.14-.35,4.24-.96,6.31-1.49,5.06-4.55,9.51-8.19,13.38-2.7,2.86-5.63,5.36-8.78,7.76-2.68,2.04-5.37,3.95-8.27,5.93-1.54,1.05-3.02,2.14-4.58,3.25-1.49,1.07-3.04,2.26-4.64,3.57-1.79,1.47-3.5,3.04-5.11,4.7-1.96,2.03-3.77,4.31-5.05,6.72-.49.92-.93,1.89-1.33,2.91-.17.44-.22.42-.16-.04.03-.22.05-.45.07-.69.03-.5.14-1,.24-1.49.05-.26.11-.52.18-.77.36-1.28.84-2.54,1.44-3.79h0Z" style="fill: #9a7b69; stroke-width: 0px;"/>
    <path d="M33.15,41.95c2.21-4.64,5.63-8.64,9.57-11.9,4.33-3.58,9.59-6.4,15.12-7.27.28-.04.28-.01.03.1-.66.28-1.3.58-1.93.92-1.77.95-3.31,1.91-4.63,2.9-2.91,2.16-5.52,4.68-7.88,7.4-1.67,1.92-3.36,3.86-4.99,5.85-1.73,2.11-3.3,4.27-4.7,6.48-.27.42-.55.89-.85,1.41-.58.99-1.05,2.01-1.51,3-.11.24-.22.51-.33.81,0,.02-.03.03-.05.03-.02,0-.03-.02-.03-.03.01-.56.03-1.14.04-1.74,0-.4.07-.77.11-1.17.01-.15.03-.31.06-.47.39-2.24,1.05-4.34,1.98-6.3h0Z" style="fill: #1a1919; stroke-width: 0px;"/>
    <path d="M43.73,62.1l-.17-.17v-.9l.17-.17c2.07-.06,3.3-.12,3.68-.19.38-.07.67-.22.85-.44.18-.22.32-.77.41-1.64.09-.87.14-1.79.14-2.77v-1.55h-4.59c-2.67,0-4.93.04-6.77.13l-.36-1.13c2.43-4.56,6.49-11.16,12.18-19.8l2.96-1.2.52.25c-.15,2.38-.23,5.32-.23,8.83l-.06,5.91v4.34c1.93-.01,3.42-.06,4.47-.13l.19.21c-.03.53-.04.92-.04,1.15.01.46.03.92.06,1.36l-.21.19c-1.36-.08-2.49-.13-3.4-.13h-1.07v1.41c0,1.57.04,2.68.13,3.33.08.66.22,1.08.4,1.27.18.19.55.33,1.1.42.55.09,1.51.14,2.86.16l.19.17v.9l-.17.17c-2.46-.11-4.52-.17-6.19-.17-2.71,0-5.06.06-7.05.17ZM39.85,51.61h8.96l.19-14.91c-1.34,1.92-3.03,4.54-5.08,7.89-2.04,3.34-3.4,5.68-4.07,7.03Z" style="fill: #9a7b69; stroke-width: 0px;"/>
  </g>
  <path d="M65.92,21.69l.32-.28c9.16.16,15.01.24,17.58.24,8.75,0,16.55-.08,23.38-.24l.2.28c-.67,2.56-1.16,6.58-1.48,12.05l-.24.32h-1.96l-.36-.32c.03-.24.04-.45.04-.64,0-2.27-.17-4.43-.52-6.49-1.68-.75-4.01-1.23-6.99-1.46-2.98-.23-5.21-.34-6.71-.34-2.11,0-4.8.15-8.09.44l-.16,6.41-.12,7.33-.12,8.13c2.88.16,5.54.24,7.97.24s4.51-.08,6.17-.24c1.65-.16,2.62-.33,2.9-.5.28-.17.49-.51.64-1,.15-.49.27-1.37.38-2.62l.16-2.48.32-.32h1.84l.32.32c-.05,2.91-.12,5.83-.2,8.77l.2,9.01-.32.32h-1.84l-.32-.32-.28-2.4c-.24-1.87-.41-2.98-.52-3.34-.11-.36-.35-.67-.74-.94-.39-.27-1.38-.48-2.98-.64s-3.8-.24-6.61-.24c-1.55,0-3.91.07-7.09.2-.13,2.24-.2,5.98-.2,11.21,0,5.61.07,9.73.2,12.37h7.37c6.49,0,10.54-.08,12.17-.24,1.63-.16,3.18-.55,4.64-1.16.24-.61.63-2.04,1.18-4.26.55-2.23.86-3.62.94-4.18l.4-.28h1.92l.32.28c-.24,1.15-.47,3.15-.7,6.01-.23,2.86-.34,5.3-.34,7.33l-.28.32c-5.1-.16-11.77-.24-20.02-.24l-10.89-.08c-2.54,0-5.18.11-7.93.32l-.32-.32v-1.32l.32-.4c1.57-.8,2.48-1.3,2.7-1.5.23-.2.41-2.54.56-7.01.15-4.47.22-7.88.22-10.23v-14.69l-.04-9.09c0-1.98-.03-3.58-.08-4.82-.05-1.24-.15-2.13-.28-2.66-.13-.53-.29-.91-.46-1.12-.17-.21-.45-.39-.84-.54-.39-.15-1.05-.27-1.98-.38l-3.04-.24-.32-.28v-2Z" style="fill: #1a1919; stroke-width: 0px;"/>
</svg>